<svg width="70" height="70" viewBox="0 0 70 70" fill="none" xmlns="http://www.w3.org/2000/svg">
<path d="M11.8262 9.80005C11.7291 9.80006 11.633 9.82028 11.5441 9.85941C11.4553 9.89854 11.3755 9.95574 11.3099 10.0274C11.2444 10.099 11.1944 10.1835 11.1632 10.2754C11.1321 10.3674 11.1204 10.4648 11.1289 10.5616L15.2182 56.9092C15.2307 57.0503 15.2858 57.1843 15.3762 57.2934C15.4665 57.4025 15.5878 57.4816 15.724 57.5204L34.8072 62.9727C34.9332 63.0088 35.0668 63.0088 35.1928 62.9727L54.276 57.5204C54.4122 57.4816 54.5335 57.4025 54.6238 57.2934C54.7141 57.1843 54.7692 57.0503 54.7818 56.9092L58.8711 10.5616C58.8796 10.4648 58.8679 10.3674 58.8367 10.2754C58.8056 10.1835 58.7556 10.099 58.69 10.0274C58.6245 9.95574 58.5447 9.89854 58.4558 9.85941C58.367 9.82028 58.2709 9.80006 58.1738 9.80005H11.8262ZM12.5904 11.2H57.4096L53.4297 56.3063L35 61.5727L16.5703 56.3063L12.5904 11.2ZM35 14C34.9072 14.0001 34.8181 14.0369 34.7525 14.1026C34.6869 14.1682 34.65 14.2572 34.65 14.35V21.0561H22.4588C22.4107 21.0562 22.3631 21.0661 22.319 21.0854C22.2749 21.1047 22.2353 21.1329 22.2025 21.1681C22.1698 21.2034 22.1447 21.2451 22.1288 21.2905C22.1129 21.3359 22.1066 21.3841 22.1101 21.4321L22.5189 26.8844C22.5255 26.9724 22.5651 27.0547 22.6297 27.1148C22.6943 27.1749 22.7793 27.2083 22.8676 27.2084H35H41.3014L40.9459 31.9608H35.35V28.9571C35.3505 28.9103 35.3417 28.8639 35.324 28.8206C35.3063 28.7773 35.2801 28.738 35.247 28.705C35.2139 28.672 35.1745 28.6459 35.1311 28.6284C35.0877 28.6109 35.0413 28.6022 34.9945 28.603C34.9019 28.6044 34.8137 28.6425 34.7491 28.7089C34.6845 28.7752 34.6489 28.8645 34.65 28.9571V31.9608H28.7301C28.6826 31.9607 28.6356 31.9703 28.5919 31.989C28.5482 32.0077 28.5088 32.0351 28.4761 32.0695C28.4433 32.1039 28.4179 32.1446 28.4014 32.1892C28.3849 32.2337 28.3777 32.2811 28.3801 32.3286L28.6535 37.7809C28.6581 37.8704 28.6967 37.9547 28.7616 38.0165C28.8265 38.0783 28.9125 38.1129 29.0021 38.1131H35H40.6232L40.2555 43.6407L35.35 45.3168V39.8631C35.3507 39.8163 35.342 39.7697 35.3244 39.7262C35.3068 39.6828 35.2807 39.6433 35.2475 39.6101C35.2143 39.577 35.1749 39.5508 35.1314 39.5332C35.088 39.5156 35.0414 39.5069 34.9945 39.5077C34.9486 39.5084 34.9032 39.5181 34.861 39.5364C34.8188 39.5546 34.7806 39.581 34.7486 39.614C34.7166 39.6471 34.6915 39.686 34.6745 39.7288C34.6576 39.7715 34.6493 39.8172 34.65 39.8631V45.3168L29.7514 43.6434L29.6242 40.4756C29.6207 40.3852 29.5822 40.2997 29.517 40.2369C29.4517 40.1742 29.3647 40.1392 29.2742 40.1393H23.8219C23.7744 40.1394 23.7274 40.1492 23.6838 40.1681C23.6402 40.1869 23.6009 40.2145 23.5683 40.249C23.5356 40.2835 23.5104 40.3243 23.4941 40.3689C23.4777 40.4136 23.4706 40.461 23.4732 40.5084L23.882 48.0061C23.8859 48.0763 23.9107 48.1437 23.9534 48.1995C23.9961 48.2554 24.0546 48.2971 24.1213 48.3192L34.8906 51.8643C34.9617 51.8877 35.0383 51.8877 35.1094 51.8643L45.8787 48.3206C45.9452 48.2985 46.0035 48.257 46.0462 48.2014C46.0888 48.1459 46.1138 48.0788 46.118 48.0088L47.0723 32.3327L47.7545 21.428C47.7575 21.3802 47.7506 21.3323 47.7344 21.2873C47.7181 21.2423 47.6928 21.2011 47.66 21.1662C47.6272 21.1314 47.5876 21.1036 47.5437 21.0847C47.4997 21.0657 47.4523 21.056 47.4045 21.0561H35.35V14.7H37.45C37.4964 14.7007 37.5424 14.6921 37.5855 14.6748C37.6285 14.6575 37.6677 14.6319 37.7007 14.5993C37.7337 14.5667 37.7599 14.5279 37.7778 14.4851C37.7958 14.4424 37.805 14.3964 37.805 14.35C37.805 14.3037 37.7958 14.2577 37.7778 14.215C37.7599 14.1722 37.7337 14.1334 37.7007 14.1008C37.6677 14.0682 37.6285 14.0426 37.5855 14.0253C37.5424 14.008 37.4964 13.9994 37.45 14H35ZM39.55 14C39.5036 13.9994 39.4576 14.008 39.4145 14.0253C39.3715 14.0426 39.3323 14.0682 39.2993 14.1008C39.2663 14.1334 39.24 14.1722 39.2221 14.215C39.2042 14.2577 39.195 14.3037 39.195 14.35C39.195 14.3964 39.2042 14.4424 39.2221 14.4851C39.24 14.5279 39.2663 14.5667 39.2993 14.5993C39.3323 14.6319 39.3715 14.6575 39.4145 14.6748C39.4576 14.6921 39.5036 14.7007 39.55 14.7H42.35C42.3964 14.7007 42.4424 14.6921 42.4855 14.6748C42.5285 14.6575 42.5677 14.6319 42.6007 14.5993C42.6337 14.5667 42.6599 14.5279 42.6778 14.4851C42.6958 14.4424 42.705 14.3964 42.705 14.35C42.705 14.3037 42.6958 14.2577 42.6778 14.215C42.6599 14.1722 42.6337 14.1334 42.6007 14.1008C42.5677 14.0682 42.5285 14.0426 42.4855 14.0253C42.4424 14.008 42.3964 13.9994 42.35 14H39.55ZM44.45 14C44.4036 13.9994 44.3576 14.008 44.3145 14.0253C44.2715 14.0426 44.2323 14.0682 44.1993 14.1008C44.1663 14.1334 44.14 14.1722 44.1221 14.215C44.1042 14.2577 44.095 14.3037 44.095 14.35C44.095 14.3964 44.1042 14.4424 44.1221 14.4851C44.14 14.5279 44.1663 14.5667 44.1993 14.5993C44.2323 14.6319 44.2715 14.6575 44.3145 14.6748C44.3576 14.6921 44.4036 14.7007 44.45 14.7H53.3148L49.9392 53.442L35.35 57.6106V53.55C35.3506 53.5037 35.3421 53.4576 35.3248 53.4146C35.3075 53.3715 35.2818 53.3324 35.2492 53.2993C35.2167 53.2663 35.1779 53.2401 35.1351 53.2222C35.0923 53.2043 35.0464 53.1951 35 53.1951C34.9536 53.1951 34.9077 53.2043 34.8649 53.2222C34.8221 53.2401 34.7833 53.2663 34.7507 53.2993C34.7182 53.3324 34.6925 53.3715 34.6752 53.4146C34.6579 53.4576 34.6493 53.5037 34.65 53.55V58.0741C34.65 58.1282 34.6626 58.1815 34.6868 58.2299C34.7109 58.2784 34.746 58.3205 34.7892 58.3531C34.8324 58.3857 34.8825 58.4078 34.9357 58.4178C34.9889 58.4277 35.0436 58.4252 35.0957 58.4104L50.3644 54.0491C50.4324 54.0294 50.4928 53.9897 50.5377 53.935C50.5826 53.8803 50.6099 53.8133 50.616 53.7428L54.0449 14.3801C54.0491 14.3318 54.0431 14.2832 54.0275 14.2373C54.0119 14.1914 53.9869 14.1492 53.9541 14.1135C53.9213 14.0777 53.8815 14.0492 53.8371 14.0297C53.7927 14.0102 53.7448 14.0001 53.6963 14H44.45ZM22.8361 21.7561H34.9535C34.9853 21.7605 35.0175 21.7605 35.0492 21.7561H47.0326L46.3736 32.2889V32.2903L45.4344 47.7299L35 51.1629L24.567 47.7299L24.1924 40.8393H28.9379L29.0609 43.9114C29.0638 43.9819 29.0879 44.05 29.1301 44.1066C29.1723 44.1632 29.2306 44.2057 29.2974 44.2286L34.8305 46.1166C34.8828 46.1457 34.9417 46.1608 35.0015 46.1605C35.0614 46.1603 35.1201 46.1447 35.1723 46.1153L40.7025 44.2286C40.7676 44.2061 40.8247 44.165 40.8665 44.1102C40.9083 44.0555 40.9331 43.9897 40.9377 43.9209L41.3465 37.7864C41.3496 37.7386 41.343 37.6907 41.3269 37.6456C41.3108 37.6005 41.2857 37.5592 41.253 37.5242C41.2203 37.4893 41.1808 37.4613 41.1369 37.4422C41.093 37.4231 41.0457 37.4132 40.9978 37.4131H35H29.3357L29.0978 32.6608H34.9439C34.9815 32.667 35.0198 32.667 35.0574 32.6608H41.2699C41.3584 32.661 41.4437 32.6277 41.5086 32.5676C41.5736 32.5075 41.6133 32.425 41.6199 32.3368L42.0287 26.8844C42.0323 26.8364 42.0259 26.7882 42.01 26.7428C41.9941 26.6974 41.969 26.6558 41.9363 26.6205C41.9036 26.5852 41.8639 26.557 41.8199 26.5378C41.7758 26.5185 41.7282 26.5085 41.6801 26.5084H35H23.193L22.8361 21.7561Z" fill="#2EBF91"/>
</svg>
