<svg width="70" height="70" viewBox="0 0 70 70" fill="none" xmlns="http://www.w3.org/2000/svg">
<path d="M35 70C28.0777 70 21.3108 67.9473 15.5551 64.1014C9.79934 60.2556 5.3133 54.7893 2.66423 48.3939C0.0151651 41.9985 -0.677952 34.9612 0.672531 28.1718C2.02301 21.3825 5.35644 15.1461 10.2513 10.2513C15.1461 5.35644 21.3825 2.02301 28.1718 0.672531C34.9612 -0.677952 41.9985 0.0151651 48.3939 2.66423C54.7893 5.3133 60.2556 9.79934 64.1014 15.5551C67.9473 21.3108 70 28.0777 70 35C69.9898 44.2795 66.299 53.1759 59.7375 59.7375C53.1759 66.299 44.2795 69.9898 35 70ZM35 1.25326C28.3249 1.25326 21.7996 3.23271 16.2495 6.94127C10.6994 10.6498 6.37361 15.9209 3.81927 22.088C1.26493 28.2551 0.596742 35.0411 1.8992 41.588C3.20165 48.1348 6.41625 54.1484 11.1365 58.8682C15.8567 63.5881 21.8706 66.8022 28.4175 68.1041C34.9644 69.406 41.7504 68.7373 47.9173 66.1824C54.0842 63.6276 59.3549 59.3014 63.063 53.751C66.7711 48.2005 68.75 41.6751 68.7495 35C68.7393 26.0522 65.1803 17.4738 58.8532 11.1468C52.5262 4.81973 43.9478 1.26347 35 1.25326Z" fill="#2EBF91"/>
<path d="M53.2478 50.1244C52.2595 53.5903 50.2565 56.6811 47.4966 58.999C44.4426 61.2399 40.7829 62.5062 36.9969 62.632L36.121 56.8809C38.3746 56.7321 40.56 56.0465 42.4947 54.8812C43.0274 54.4142 43.5288 53.9128 43.9958 53.3801L33.6255 20.1263H42.2495L48.2513 45.004L54.625 20.1263H63.0011L53.2478 50.1244Z" fill="#2EBF91"/>
<path d="M23.1258 18.9999C24.9567 18.9442 26.7812 19.2416 28.4997 19.8758C30.1844 20.5288 31.7476 21.4599 33.1243 22.6302L29.6262 27.376C28.7367 26.7204 27.7711 26.1747 26.7506 25.7509C25.7922 25.3928 24.7738 25.2226 23.7511 25.2496C19.5011 25.2496 17.3774 28.4998 17.3774 35.1241C17.1301 37.6128 17.7006 40.1143 19.0025 42.2497C19.5513 42.9747 20.2742 43.5495 21.1043 43.9208C21.9344 44.292 22.8448 44.4477 23.7511 44.3733C24.7335 44.4006 25.7114 44.2301 26.6267 43.872C27.7048 43.4027 28.7494 42.8597 29.7529 42.2469L33.2537 47.2461C30.4931 49.5674 26.9855 50.8109 23.3792 50.7469C20.6761 50.8099 18.0037 50.1631 15.6284 48.8712C13.4448 47.5808 11.7023 45.6606 10.6292 43.3624C9.425 40.737 8.82721 37.8743 8.88016 34.9863C8.84071 32.0997 9.43788 29.2399 10.6292 26.6103C11.698 24.2512 13.4351 22.2574 15.6257 20.8756C17.9326 19.641 20.5093 18.9966 23.1258 18.9999Z" fill="#2EBF91"/>
</svg>
