<svg width="70" height="70" viewBox="0 0 70 70" fill="none" xmlns="http://www.w3.org/2000/svg">
<path d="M25.9 2.79999C19.3445 2.79999 14 8.14452 14 14.7C14 19.3204 16.7299 23.23 20.5926 25.2C16.7299 27.17 14 31.0796 14 35.7C14 40.3204 16.7299 44.23 20.5926 46.2C16.7299 48.17 14 52.0796 14 56.7C14 63.2555 19.3445 68.6 25.9 68.6C32.4555 68.6 37.8 63.2555 37.8 56.7V46.2V41.5187C39.6779 45.0824 43.3049 47.6 47.6 47.6C53.769 47.6 58.8 42.569 58.8 36.4C58.8 31.3295 55.3366 27.2001 50.7008 25.8289C55.375 24.2224 58.8 19.9083 58.8 14.7C58.8 8.14452 53.4555 2.79999 46.9 2.79999H36.4H25.9ZM25.9 5.59999H35V23.8H25.9C20.8579 23.8 16.8 19.7421 16.8 14.7C16.8 9.65786 20.8579 5.59999 25.9 5.59999ZM37.8 5.59999H46.9C51.9421 5.59999 56 9.65786 56 14.7C56 19.7421 51.9421 23.8 46.9 23.8H37.8V5.59999ZM25.9 26.6H35V44.8H25.9C20.8579 44.8 16.8 40.7421 16.8 35.7C16.8 30.6579 20.8579 26.6 25.9 26.6ZM37.8 26.6H42.4812C40.4724 27.6586 38.8586 29.2724 37.8 31.2812V26.6ZM47.6 28C52.2558 28 56 31.7442 56 36.4C56 41.0558 52.2558 44.8 47.6 44.8C42.9442 44.8 39.2 41.0558 39.2 36.4C39.2 31.7442 42.9442 28 47.6 28ZM25.9 47.6H35V56.7C35 61.7421 30.9421 65.8 25.9 65.8C20.8579 65.8 16.8 61.7421 16.8 56.7C16.8 51.6579 20.8579 47.6 25.9 47.6Z" fill="#2EBF91"/>
</svg>
