<svg width="70" height="70" viewBox="0 0 70 70" fill="none" xmlns="http://www.w3.org/2000/svg">
<path d="M11.8262 9.80005C11.7291 9.80006 11.633 9.82028 11.5441 9.85941C11.4553 9.89854 11.3755 9.95574 11.3099 10.0274C11.2444 10.099 11.1944 10.1835 11.1632 10.2754C11.1321 10.3674 11.1204 10.4648 11.1289 10.5616L15.2182 56.9092C15.2307 57.0503 15.2858 57.1843 15.3762 57.2934C15.4665 57.4025 15.5878 57.4816 15.724 57.5204L34.8072 62.9727C34.9332 63.0088 35.0668 63.0088 35.1928 62.9727L54.276 57.5204C54.4122 57.4816 54.5335 57.4025 54.6238 57.2934C54.7141 57.1843 54.7692 57.0503 54.7818 56.9092L58.8711 10.5616C58.8796 10.4648 58.8679 10.3674 58.8367 10.2754C58.8056 10.1835 58.7556 10.099 58.69 10.0274C58.6245 9.95574 58.5447 9.89854 58.4558 9.85941C58.367 9.82028 58.2709 9.80006 58.1738 9.80005H11.8262ZM12.5904 11.2H57.4096L53.4297 56.3063L35 61.5727L16.5703 56.3063L12.5904 11.2ZM35 14C34.9072 14.0001 34.8181 14.0369 34.7525 14.1026C34.6869 14.1682 34.65 14.2572 34.65 14.35V17.15C34.6493 17.1964 34.6579 17.2425 34.6752 17.2855C34.6925 17.3286 34.7182 17.3677 34.7507 17.4008C34.7833 17.4338 34.8221 17.46 34.8649 17.4779C34.9077 17.4958 34.9536 17.505 35 17.505C35.0464 17.505 35.0923 17.4958 35.1351 17.4779C35.1779 17.46 35.2167 17.4338 35.2492 17.4008C35.2818 17.3677 35.3075 17.3286 35.3248 17.2855C35.3421 17.2425 35.3506 17.1964 35.35 17.15V14.7H53.3148L49.9392 53.442L47.2076 54.2227C47.1616 54.2336 47.1182 54.2537 47.0802 54.2818C47.0421 54.3099 47.0102 54.3454 46.9862 54.3862C46.9623 54.427 46.9469 54.4722 46.9409 54.5191C46.9349 54.566 46.9385 54.6137 46.9515 54.6592C46.9644 54.7046 46.9864 54.747 47.0162 54.7838C47.046 54.8205 47.0829 54.8508 47.1247 54.8729C47.1666 54.895 47.2124 54.9084 47.2596 54.9122C47.3067 54.9161 47.3541 54.9103 47.399 54.8954L50.3644 54.0491C50.4324 54.0294 50.4928 53.9897 50.5377 53.935C50.5826 53.8803 50.6099 53.8133 50.616 53.7428L54.0449 14.3801C54.0491 14.3318 54.0431 14.2832 54.0275 14.2373C54.0119 14.1914 53.9869 14.1492 53.9541 14.1135C53.9213 14.0777 53.8815 14.0492 53.8371 14.0297C53.7927 14.0102 53.7448 14.0001 53.6963 14H35ZM34.9945 18.8946C34.9486 18.8953 34.9032 18.9051 34.861 18.9233C34.8188 18.9416 34.7806 18.9679 34.7486 19.001C34.7166 19.034 34.6915 19.073 34.6745 19.1157C34.6576 19.1584 34.6493 19.2041 34.65 19.25V21.0561H22.5955C22.5478 21.056 22.5005 21.0657 22.4566 21.0846C22.4128 21.1034 22.3733 21.1311 22.3405 21.1658C22.3077 21.2005 22.2824 21.2415 22.266 21.2864C22.2497 21.3312 22.2427 21.379 22.2455 21.4266L23.1998 37.7836C23.205 37.8729 23.2442 37.9567 23.3093 38.018C23.3744 38.0792 23.4604 38.1133 23.5498 38.1131H35H40.6232L40.2555 43.642L35.35 45.3168V39.8631C35.3507 39.8163 35.342 39.7697 35.3244 39.7262C35.3068 39.6828 35.2807 39.6433 35.2475 39.6101C35.2143 39.577 35.1749 39.5508 35.1314 39.5332C35.088 39.5156 35.0414 39.5069 34.9945 39.5077C34.9486 39.5084 34.9032 39.5181 34.861 39.5364C34.8188 39.5546 34.7806 39.581 34.7486 39.614C34.7166 39.6471 34.6915 39.686 34.6745 39.7288C34.6576 39.7715 34.6493 39.8172 34.65 39.8631V45.3168L29.7404 43.6407L29.4875 40.462C29.4806 40.3742 29.4409 40.2922 29.3763 40.2324C29.3117 40.1726 29.2269 40.1394 29.1389 40.1393H23.6865C23.6383 40.1392 23.5905 40.149 23.5463 40.1682C23.502 40.1874 23.4622 40.2155 23.4294 40.2508C23.3965 40.2861 23.3713 40.3279 23.3553 40.3734C23.3393 40.4189 23.3329 40.4672 23.3365 40.5153L23.882 48.0129C23.8872 48.0819 23.9127 48.1478 23.9552 48.2023C23.9978 48.2568 24.0556 48.2975 24.1213 48.3192L34.65 51.785V58.0741C34.65 58.1282 34.6626 58.1815 34.6868 58.2299C34.7109 58.2784 34.746 58.3205 34.7892 58.3531C34.8324 58.3857 34.8825 58.4078 34.9357 58.4178C34.9889 58.4277 35.0436 58.4252 35.0957 58.4104L41.7088 56.5209C41.7548 56.5101 41.7981 56.49 41.8362 56.4619C41.8742 56.4338 41.9062 56.3983 41.9301 56.3575C41.9541 56.3167 41.9695 56.2715 41.9755 56.2245C41.9814 56.1776 41.9779 56.13 41.9649 56.0845C41.952 56.039 41.9299 55.9966 41.9002 55.9599C41.8704 55.9231 41.8335 55.8928 41.7916 55.8707C41.7498 55.8487 41.7039 55.8353 41.6568 55.8314C41.6097 55.8276 41.5622 55.8333 41.5174 55.8483L35.35 57.6106V51.785L45.8787 48.3192C45.945 48.2972 46.0032 48.2559 46.0458 48.2006C46.0885 48.1453 46.1136 48.0785 46.118 48.0088L47.0723 32.3313C47.075 32.2836 47.0681 32.2359 47.0517 32.1911C47.0354 32.1462 47.0101 32.1052 46.9773 32.0705C46.9445 32.0358 46.905 32.0081 46.8611 31.9893C46.8172 31.9704 46.77 31.9607 46.7223 31.9608H35.35V28.9571C35.3505 28.9103 35.3417 28.8639 35.324 28.8206C35.3063 28.7773 35.2801 28.738 35.247 28.705C35.2139 28.672 35.1745 28.6459 35.1311 28.6284C35.0877 28.6109 35.0413 28.6022 34.9945 28.603C34.9019 28.6044 34.8137 28.6425 34.7491 28.7089C34.6845 28.7752 34.6489 28.8645 34.65 28.9571V31.9608H29.0541L28.6986 27.2084H35H47.1324C47.2207 27.2083 47.3056 27.1749 47.3703 27.1148C47.4349 27.0547 47.4745 26.9724 47.481 26.8844L47.8898 21.4321C47.8934 21.3841 47.887 21.3359 47.8711 21.2905C47.8552 21.2451 47.8301 21.2034 47.7974 21.1681C47.7647 21.1329 47.7251 21.1047 47.681 21.0854C47.6369 21.0661 47.5893 21.0562 47.5412 21.0561H35.35V19.25C35.3507 19.2032 35.342 19.1566 35.3244 19.1132C35.3068 19.0697 35.2807 19.0302 35.2475 18.9971C35.2143 18.9639 35.1749 18.9377 35.1314 18.9201C35.088 18.9025 35.0414 18.8938 34.9945 18.8946ZM22.966 21.7561H35H47.1639L46.807 26.5084H35H28.3199C28.2718 26.5085 28.2242 26.5185 28.1801 26.5378C28.136 26.557 28.0964 26.5852 28.0637 26.6205C28.031 26.6558 28.0059 26.6974 27.99 26.7428C27.9741 26.7882 27.9677 26.8364 27.9713 26.8844L28.3801 32.3368C28.3866 32.425 28.4264 32.5075 28.4913 32.5676C28.5563 32.6277 28.6416 32.661 28.7301 32.6608H34.9439C34.9815 32.667 35.0198 32.667 35.0574 32.6608H46.3504L45.4344 47.7286L35 51.1629L24.5629 47.7286L24.0625 40.8393H28.8148L29.0609 43.925C29.0664 43.9932 29.0917 44.0583 29.1337 44.1122C29.1758 44.1662 29.2327 44.2066 29.2974 44.2286L34.8373 46.1208C34.8875 46.1471 34.9433 46.1609 35 46.1609C35.0567 46.1609 35.1125 46.1471 35.1627 46.1208L40.7025 44.2286C40.7676 44.2061 40.8247 44.165 40.8665 44.1102C40.9083 44.0555 40.9331 43.9897 40.9377 43.9209L41.3465 37.7864C41.3496 37.7386 41.343 37.6907 41.3269 37.6456C41.3108 37.6005 41.2857 37.5592 41.253 37.5242C41.2203 37.4893 41.1808 37.4613 41.1369 37.4422C41.093 37.4231 41.0457 37.4132 40.9978 37.4131H35H23.8793L22.966 21.7561ZM45.1691 54.8161C45.1376 54.8169 45.1063 54.8219 45.0762 54.8311L43.6803 55.2303C43.6342 55.2412 43.5909 55.2613 43.5528 55.2894C43.5148 55.3175 43.4828 55.353 43.4589 55.3938C43.435 55.4346 43.4195 55.4798 43.4136 55.5267C43.4076 55.5736 43.4112 55.6213 43.4241 55.6668C43.4371 55.7123 43.4591 55.7547 43.4889 55.7914C43.5187 55.8281 43.5556 55.8585 43.5974 55.8805C43.6392 55.9026 43.6851 55.916 43.7322 55.9198C43.7794 55.9237 43.8268 55.918 43.8717 55.903L45.2676 55.5038C45.3499 55.4813 45.4212 55.4296 45.4681 55.3582C45.5149 55.2869 45.5341 55.2009 45.522 55.1164C45.5099 55.032 45.4674 54.9548 45.4024 54.8995C45.3374 54.8442 45.2545 54.8145 45.1691 54.8161Z" fill="#2EBF91"/>
</svg>
