<svg width="70" height="70" viewBox="0 0 70 70" fill="none" xmlns="http://www.w3.org/2000/svg">
<path d="M34.8633 64.3945C34.7627 64.3945 34.6631 64.3803 34.5669 64.3541L14.1958 58.6119C13.7605 58.4883 13.4444 58.1087 13.4028 57.6581L8.75437 6.66203C8.72703 6.35578 8.82875 6.05172 9.03656 5.82531C9.24328 5.59781 9.5364 5.46875 9.84375 5.46875H60.0195C60.3258 5.46875 60.6178 5.59672 60.8245 5.82312C61.0312 6.04844 61.1352 6.35031 61.1089 6.65656L56.7339 57.6527C56.6956 58.1077 56.3762 58.4916 55.9366 58.613L35.1553 64.3552C35.0591 64.3814 34.9617 64.3945 34.8633 64.3945ZM15.5137 56.7109L34.8666 62.1655L54.6208 56.7077L58.8273 7.65625H11.0425L15.5137 56.7109Z" fill="#2EBF91"/>
<path d="M35 10.9375V59.0625L51.6797 54.6875L55.7812 10.9375H35ZM51.8164 31.3086L50.5859 47.4414L36.9141 50.8594V45.1172L46.7578 42.3828L46.8945 37.5977L36.7773 39.1016V17.5H52.7734L52.3633 23.3789L41.8359 23.5156V32.4023L51.8164 31.3086Z" fill="#2EBF91"/>
<path d="M18.1836 46.8945V40.8789L28.0273 43.6133V17.5H32.8125V50.9961L18.1836 46.8945Z" fill="#2EBF91"/>
</svg>
