<svg width="70" height="70" viewBox="0 0 70 70" fill="none" xmlns="http://www.w3.org/2000/svg">
<g clip-path="url(#clip0_343_72)">
<path d="M60.242 38.9228C57.7962 38.9354 55.6766 39.5234 53.9 40.3984C53.2504 39.102 52.5924 37.961 52.4818 37.1126C52.353 36.1228 52.2032 35.532 52.3586 34.3518C52.514 33.1716 53.1972 31.5014 53.186 31.3768C53.1762 31.2522 53.0334 30.6516 51.6222 30.6404C50.211 30.6306 49.0042 30.912 48.8614 31.2844C48.7186 31.6568 48.447 32.4954 48.279 33.3704C48.0312 34.65 45.4622 39.214 44.002 41.601C43.5246 40.6686 43.1186 39.8482 43.0346 39.1986C42.9058 38.2088 42.756 37.618 42.9114 36.4378C43.0668 35.2576 43.75 33.5874 43.7388 33.4628C43.729 33.3382 43.5862 32.7376 42.175 32.7264C40.7638 32.7166 39.557 32.998 39.4142 33.3704C39.2714 33.7428 39.1202 34.6136 38.8318 35.4564C38.542 36.2992 35.126 43.911 34.2314 45.8836C33.775 46.8888 33.3788 47.6966 33.0988 48.2482L33.0974 48.2454C33.0974 48.2454 33.0806 48.2818 33.0498 48.3448C32.8104 48.8138 32.6676 49.0742 32.6676 49.0742C32.6676 49.0742 32.669 49.0784 32.6718 49.084C32.4814 49.4284 32.2784 49.749 32.1776 49.749C32.1076 49.749 31.9662 48.8306 32.2084 47.572C32.7166 44.9316 33.9374 40.8128 33.9262 40.6714C33.9206 40.5986 34.153 39.8818 33.1282 39.5052C32.1328 39.1412 31.7772 39.7488 31.6862 39.7502C31.598 39.7516 31.5322 39.9644 31.5322 39.9644C31.5322 39.9644 32.6424 35.3332 29.4154 35.3332C27.3994 35.3332 24.605 37.5396 23.2274 39.5388C22.3594 40.012 20.5002 41.027 18.5276 42.1106C17.7702 42.5264 16.9974 42.952 16.2638 43.3566C16.2134 43.302 16.1644 43.246 16.1126 43.1914C12.201 39.018 4.9714 36.0668 5.278 30.457C5.39 28.4172 6.0984 23.0468 19.1716 16.5326C29.8802 11.1958 38.4538 12.6644 39.935 15.9194C42.0518 20.5688 35.3528 29.211 24.2326 30.457C19.9948 30.9316 17.7646 29.2894 17.2088 28.6776C16.625 28.0336 16.5382 28.0042 16.3198 28.126C15.9642 28.3234 16.1896 28.8918 16.3198 29.2306C16.6516 30.0944 18.0138 31.6274 20.3378 32.389C22.3818 33.0596 27.356 33.4278 33.3732 31.101C40.1114 28.4942 45.3726 21.2436 43.8284 15.183C42.2562 9.01879 32.0362 6.99299 22.3636 10.4286C16.6068 12.474 10.3754 15.6842 5.894 19.8744C0.565601 24.8584 -0.282799 29.1956 0.0672011 31.0072C1.3118 37.4472 10.1864 41.6402 13.741 44.7482C13.566 44.8448 13.4008 44.9358 13.251 45.0184C11.4688 45.9004 4.704 49.441 3.0114 53.1818C1.092 57.4252 3.3166 60.4702 4.7908 60.8804C9.3548 62.1502 14.0392 59.8654 16.5564 56.1106C19.0736 52.3572 18.7656 47.4698 17.6106 45.2382C17.5966 45.2102 17.5798 45.1836 17.5658 45.1556C18.0264 44.8826 18.4954 44.6068 18.9602 44.3338C19.8674 43.8018 20.7578 43.3048 21.5306 42.8834C21.098 44.0678 20.7816 45.4874 20.6164 47.5384C20.4232 49.9478 21.4102 53.0614 22.7024 54.2864C23.2708 54.8254 23.9554 54.838 24.3894 54.838C25.893 54.838 26.579 53.5878 27.3336 52.108C28.2604 50.2936 29.0822 48.1824 29.0822 48.1824C29.0822 48.1824 28.0504 53.8874 30.8616 53.8874C31.885 53.8874 32.9154 52.5588 33.3746 51.8826C33.376 51.8896 33.376 51.8938 33.376 51.8938C33.376 51.8938 33.4026 51.8504 33.4544 51.7608C33.5608 51.5984 33.621 51.4948 33.621 51.4948C33.621 51.4948 33.6238 51.4836 33.6266 51.4654C34.0382 50.7514 34.951 49.1218 36.3202 46.4338C38.0884 42.9618 39.7852 38.6134 39.7852 38.6134C39.7852 38.6134 39.9434 39.6774 40.46 41.4344C40.7638 42.469 41.4106 43.6128 41.9202 44.709C41.51 45.2788 41.258 45.605 41.258 45.605C41.258 45.605 41.2608 45.6106 41.265 45.6218C40.9374 46.0572 40.5692 46.5262 40.1842 46.9854C38.7884 48.6486 37.1252 50.547 36.9026 51.0958C36.6408 51.7412 36.7024 52.2172 37.2092 52.598C37.5788 52.8766 38.2382 52.92 38.927 52.8738C40.1814 52.7898 41.0648 52.4776 41.5002 52.2886C42.1792 52.0492 42.9702 51.6712 43.7122 51.1252C45.0814 50.1186 45.9074 48.678 45.829 46.7698C45.7856 45.7184 45.4496 44.6768 45.0254 43.6926C45.15 43.5134 45.2746 43.3342 45.3992 43.1508C47.558 39.9938 49.2324 36.526 49.2324 36.526C49.2324 36.526 49.3906 37.59 49.9072 39.347C50.169 40.2374 50.6856 41.2076 51.149 42.1596C49.119 43.8088 47.8604 45.7254 47.4222 46.9826C46.6144 49.308 47.2472 50.3622 48.4344 50.6016C48.972 50.7108 49.7322 50.4644 50.3034 50.2222C51.0146 49.987 51.8686 49.5936 52.6666 49.007C54.0358 48.0004 55.3532 46.5906 55.2734 44.6824C55.237 43.8144 55.0018 42.952 54.6826 42.1232C56.4032 41.4064 58.632 41.0074 61.4698 41.3392C67.5584 42.0504 68.7526 45.8514 68.5244 47.4418C68.2962 49.0336 67.0194 49.9072 66.5924 50.1718C66.1654 50.4364 66.0352 50.5274 66.0716 50.7234C66.1234 51.009 66.3208 50.9978 66.6848 50.9362C67.186 50.8522 69.881 49.6426 69.9972 46.7054C70.1428 42.9842 66.57 38.8892 60.242 38.9228ZM13.3168 54.7428C11.3008 56.9422 8.4826 57.7738 7.2744 57.0738C5.9696 56.3178 6.4862 53.0782 8.9614 50.7444C10.4692 49.322 12.4166 48.0116 13.7088 47.2038C14.0028 47.0274 14.434 46.767 14.959 46.452C15.0458 46.403 15.0948 46.375 15.0948 46.375L15.0934 46.3722C15.1942 46.312 15.2992 46.249 15.4056 46.1846C16.3058 49.5082 15.4336 52.4342 13.3168 54.7428ZM28.007 44.7552C27.3042 46.4674 25.8342 50.848 24.9396 50.6128C24.171 50.4112 23.7034 47.0806 24.7856 43.8046C25.3302 42.1554 26.4936 40.1842 27.1782 39.4184C28.2786 38.1878 29.491 37.7846 29.785 38.2844C30.1616 38.92 28.448 43.6814 28.007 44.7552ZM40.145 50.547C39.8468 50.7024 39.5738 50.8004 39.4478 50.7248C39.354 50.6688 39.571 50.4644 39.571 50.4644C39.571 50.4644 41.0886 48.8306 41.6878 48.0872C42.035 47.6546 42.4396 47.1408 42.8778 46.5668C42.882 46.6242 42.8834 46.6816 42.8834 46.7376C42.8778 48.6948 40.9878 50.015 40.145 50.547ZM49.4956 48.4148C49.273 48.2566 49.3108 47.7456 50.0402 46.1552C50.3272 45.5308 50.981 44.478 52.1192 43.4728C52.2508 43.8858 52.332 44.282 52.3292 44.6516C52.3138 47.1142 50.5568 48.034 49.4956 48.4148Z" fill="#2EBF91"/>
</g>
<defs>
<clipPath id="clip0_343_72">
<rect width="70" height="70" fill="white"/>
</clipPath>
</defs>
</svg>
