<svg width="70" height="70" viewBox="0 0 70 70" fill="none" xmlns="http://www.w3.org/2000/svg">
<path d="M34.0416 15.3972C28.7832 15.3972 25.8188 18.9901 20.9111 24.9429C20.9097 24.9443 20.9091 24.9463 20.9084 24.9484C20.662 25.2466 20.7059 25.6871 21.0041 25.9328C21.3023 26.1785 21.7414 26.136 21.9885 25.8371L21.9898 25.8357C22.7689 24.8921 24.4864 24.3067 26.585 24.2675C29.8498 24.1863 34.5419 25.4758 37.8711 29.2208C41.4523 33.2493 46.6407 38.0515 51.0262 38.0515C56.8243 38.0515 61.6833 33.3938 64.0227 25.5923C64.1291 25.2353 63.9366 24.8577 63.5852 24.7324C63.2338 24.6092 62.8454 24.7817 62.7033 25.1261C61.9767 26.8887 60.7693 28.0172 59.1145 28.4771C56.465 29.2163 53.281 28.0703 51.8656 27.0238C49.9679 25.6196 48.4258 23.9639 46.9355 22.363C43.6014 18.7804 40.4522 15.3972 34.0416 15.3972ZM34.0416 16.7972C39.8432 16.7972 42.6558 19.8174 45.9115 23.316C47.4452 24.9631 49.0296 26.6685 51.0316 28.149C52.5618 29.2816 56.2102 30.7379 59.4904 29.8251C60.0868 29.6592 60.6406 29.4208 61.1488 29.1142C58.7674 33.8994 55.1499 36.6515 51.0262 36.6515C48.0099 36.6515 43.7092 33.6826 38.917 28.2912C35.354 24.283 30.3751 22.8648 26.8051 22.8648C26.7225 22.8648 26.6402 22.8654 26.559 22.8675C25.7281 22.8829 24.9487 22.9745 24.2389 23.1355C27.7347 19.0244 30.2112 16.7972 34.0416 16.7972ZM35 17.85C34.8068 17.85 34.65 18.0068 34.65 18.2C34.65 18.3932 34.8068 18.55 35 18.55C39.1811 18.55 42.0525 21.7197 45.0926 25.0769C46.4499 26.5742 47.8534 28.1241 49.3801 29.3589C50.7976 30.5062 53.7613 32.2464 56.6467 32.2464C57.0065 32.2464 57.3651 32.2191 57.7186 32.1603C57.9097 32.1288 58.0385 31.9487 58.007 31.7583C57.9755 31.5686 57.7955 31.4328 57.6051 31.4699C54.6518 31.955 51.3225 30.0307 49.8189 28.8148C48.3349 27.6143 46.9498 26.085 45.6107 24.6066C42.6021 21.2844 39.4912 17.85 35 17.85ZM32.7455 18.0427C31.2139 18.3409 30.0739 18.9636 28.5059 20.0087C28.3449 20.1158 28.3003 20.3338 28.4074 20.4941C28.4753 20.5956 28.5866 20.65 28.7 20.65C28.7672 20.65 28.834 20.6311 28.8928 20.5912C30.3852 19.5965 31.4627 19.0055 32.8781 18.7304C33.0678 18.6933 33.1928 18.51 33.1557 18.3203C33.1193 18.1306 32.9373 18.0105 32.7455 18.0427ZM19.2404 31.9484C13.982 31.9484 11.019 35.5413 6.11133 41.4941C6.11063 41.4955 6.10929 41.4968 6.10859 41.4982C5.86219 41.7964 5.90473 42.2362 6.20293 42.4826C6.50183 42.7283 6.94297 42.6878 7.18867 42.3882V42.3869C7.99017 41.4167 9.76615 40.822 11.9396 40.7968C15.1862 40.7541 19.8452 42.0433 23.0645 45.7652C27.9939 51.4646 32.6696 54.6027 36.2277 54.6027C42.0265 54.6027 46.8835 49.9457 49.2215 42.1421C49.3279 41.7851 49.1367 41.4075 48.7854 41.2822C48.4347 41.1576 48.0456 41.3295 47.9035 41.6746C47.1356 43.5366 45.8556 44.7081 44.0986 45.1568C41.5933 45.7987 38.6158 44.8276 37.0877 43.5914C35.3965 42.2236 33.974 40.6888 32.5992 39.2027C29.1461 35.4724 25.8855 31.9484 19.2404 31.9484ZM19.2432 33.3484C25.2758 33.3484 28.1942 36.501 31.5738 40.1529C32.9829 41.6754 34.4404 43.2502 36.21 44.681C38.0475 46.1678 41.466 47.2753 44.4473 46.513C45.1235 46.3408 45.7492 46.0775 46.3176 45.7296C43.9355 50.4756 40.3325 53.2027 36.2277 53.2027C33.0826 53.2027 28.7846 50.2357 24.1254 44.8492C20.6436 40.8235 15.6533 39.3955 12.0805 39.3955C12.0287 39.3955 11.975 39.3961 11.9246 39.3968C11.0349 39.4066 10.2018 39.5015 9.44863 39.6744C12.9395 35.571 15.4163 33.3484 19.2432 33.3484ZM19.95 34.3C19.7568 34.3 19.6 34.4568 19.6 34.65C19.6 34.8432 19.7568 35 19.95 35C24.1311 35 27.0025 38.1697 30.0426 41.5269C31.3999 43.0242 32.8034 44.5741 34.3301 45.8089C35.7476 46.9562 38.7113 48.6964 41.5967 48.6964C41.9565 48.6964 42.3151 48.6691 42.6686 48.6103C42.8597 48.5788 42.9885 48.3988 42.957 48.2083C42.9255 48.0187 42.7469 47.8856 42.5551 47.9199C39.6039 48.4099 36.2725 46.4807 34.7689 45.2648C33.2849 44.0643 31.8998 42.535 30.5607 41.0566C27.5521 37.7344 24.4412 34.3 19.95 34.3ZM18.241 34.4039C16.4378 34.6454 15.215 35.2855 13.4559 36.4587C13.2949 36.5658 13.2503 36.7838 13.3574 36.9441C13.4253 37.0456 13.5366 37.1 13.65 37.1C13.7172 37.1 13.7846 37.0811 13.8441 37.0412C15.5143 35.9282 16.6673 35.3217 18.334 35.0984C18.5258 35.0725 18.6593 34.8957 18.6334 34.7046C18.6075 34.5128 18.4307 34.3724 18.241 34.4039Z" fill="#2EBF91"/>
</svg>
